# xmcd
#
# Track frame offsets:
# 150
# 17102
# 33065
# 49202
# 72457
# 84954
#
# Disc length: 1360 seconds
#
# Revision: 0
# Processed by: cddbd v1.5PL3 Copyright (c) Steve Scherf et al.
# Submitted via: Audion 3.0.2 (http://www.panic.com/audion/)
#
DISCID=43054e06
DTITLE=os safados - mdb
DYEAR=1900
DGENRE=
TTITLE0=xodo
TTITLE1=cravo e canela
TTITLE2=pegando fogo
TTITLE3=o nosso amor
TTITLE4=o dara
TTITLE5=falsa baiana
EXTD=
EXTT0=
EXTT1=
EXTT2=
EXTT3=
EXTT4=
EXTT5=
PLAYORDER=
